<?xml version="1.0" encoding="UTF-8"?>
<!DOCTYPE svg PUBLIC "-//W3C//DTD SVG 1.1//EN" "http://www.w3.org/Graphics/SVG/1.1/DTD/svg11.dtd">
<!-- Creator: CorelDRAW -->
<svg xmlns="http://www.w3.org/2000/svg" xml:space="preserve" width="210mm" height="297mm" style="shape-rendering:geometricPrecision; text-rendering:geometricPrecision; image-rendering:optimizeQuality; fill-rule:evenodd; clip-rule:evenodd"
viewBox="0 0 210 297"
 xmlns:xlink="http://www.w3.org/1999/xlink">
 <defs>
  <style type="text/css">
   <![CDATA[
    .str0 {stroke:#1F1A17;stroke-width:0.7}
    .fil0 {fill:#DEDEDD}
   ]]>
  </style>
 </defs>
 <g id="Слой_x0020_1">
  <metadata id="CorelCorpID_0Corel-Layer"/>
  <path class="fil0 str0" d="M87.0794 159.218l6.5439 0c0.8219,0 1.4943,0.6724 1.4943,1.4943l0 6.5439c0,0.8219 -0.6724,1.4943 -1.4943,1.4943l-6.5439 0c-0.8219,0 -1.4943,-0.6724 -1.4943,-1.4943l0 -6.5439c0,-0.8219 0.6724,-1.4943 1.4943,-1.4943zm6.209 0.8502c0.3558,0 0.6441,0.2883 0.6441,0.6441 0,0.3557 -0.2883,0.6441 -0.6441,0.6441 -0.3558,0 -0.6441,-0.2884 -0.6441,-0.6441 0,-0.3558 0.2883,-0.6441 0.6441,-0.6441zm-2.937 1.13c1.5384,0 2.786,1.2476 2.786,2.786 0,1.5385 -1.2476,2.7861 -2.786,2.7861 -1.5385,0 -2.7861,-1.2476 -2.7861,-2.7861 0,-1.5384 1.2476,-2.786 2.7861,-2.786z"/>
 </g>
</svg>
