<?xml version="1.0" encoding="UTF-8"?>
<!DOCTYPE svg PUBLIC "-//W3C//DTD SVG 1.1//EN" "http://www.w3.org/Graphics/SVG/1.1/DTD/svg11.dtd">
<!-- Creator: CorelDRAW -->
<svg xmlns="http://www.w3.org/2000/svg" xml:space="preserve" width="210mm" height="297mm" style="shape-rendering:geometricPrecision; text-rendering:geometricPrecision; image-rendering:optimizeQuality; fill-rule:evenodd; clip-rule:evenodd"
viewBox="0 0 210 297"
 xmlns:xlink="http://www.w3.org/1999/xlink">
 <defs>
  <style type="text/css">
   <![CDATA[
    .str0 {stroke:#1F1A17;stroke-width:0.7}
    .fil0 {fill:white}
   ]]>
  </style>
 </defs>
 <g id="Слой_x0020_1">
  <metadata id="CorelCorpID_0Corel-Layer"/>
  <path class="fil0 str0" d="M87.0798 159.218l6.5455 0c0.8221,0 1.4947,0.6726 1.4947,1.4947l0 6.5455c0,0.8221 -0.6726,1.4947 -1.4947,1.4947l-6.5455 0c-0.8221,0 -1.4947,-0.6726 -1.4947,-1.4947l0 -6.5455c0,-0.8221 0.6726,-1.4947 1.4947,-1.4947zm6.2106 0.8504c0.3558,0 0.6442,0.2884 0.6442,0.6443 0,0.3558 -0.2884,0.6442 -0.6442,0.6442 -0.3559,0 -0.6443,-0.2884 -0.6443,-0.6442 0,-0.3559 0.2884,-0.6443 0.6443,-0.6443zm-2.9378 1.1303c1.5388,0 2.7867,1.2479 2.7867,2.7867 0,1.5389 -1.2479,2.7868 -2.7867,2.7868 -1.5388,0 -2.7868,-1.2479 -2.7868,-2.7868 0,-1.5388 1.248,-2.7867 2.7868,-2.7867z"/>
 </g>
</svg>
