<?xml version="1.0" encoding="UTF-8"?>
<!DOCTYPE svg PUBLIC "-//W3C//DTD SVG 1.1//EN" "http://www.w3.org/Graphics/SVG/1.1/DTD/svg11.dtd">
<!-- Creator: CorelDRAW -->
<svg xmlns="http://www.w3.org/2000/svg" xml:space="preserve" width="210mm" height="297mm" style="shape-rendering:geometricPrecision; text-rendering:geometricPrecision; image-rendering:optimizeQuality; fill-rule:evenodd; clip-rule:evenodd"
viewBox="0 0 210 297"
 xmlns:xlink="http://www.w3.org/1999/xlink">
 <defs>
  <style type="text/css">
   <![CDATA[
    .str0 {stroke:#1F1A17;stroke-width:0.35}
    .fil0 {fill:white;fill-rule:nonzero}
   ]]>
  </style>
 </defs>
 <g id="Слой_x0020_1">
  <metadata id="CorelCorpID_0Corel-Layer"/>
  <path class="fil0 str0" d="M74.3956 120.385l0.6449 0 0 -0.3316c0,-0.3683 0.0395,-0.6449 0.1185,-0.8269 0.079,-0.182 0.2229,-0.3302 0.4332,-0.4445 0.2117,-0.1143 0.4784,-0.1708 0.8001,-0.1708 0.3316,0 0.6548,0.0494 0.9723,0.1482l-0.1567 0.8114c-0.1848,-0.0452 -0.3626,-0.0663 -0.5334,-0.0663 -0.1693,0 -0.2892,0.0381 -0.3626,0.1171 -0.0734,0.079 -0.1087,0.23 -0.1087,0.453l0 0.3104 0.8679 0 0 0.913 -0.8679 0 0 3.477 -1.1627 0 0 -3.477 -0.6449 0 0 -0.913z"/>
 </g>
</svg>
