<?xml version="1.0" encoding="UTF-8"?>
<!DOCTYPE svg PUBLIC "-//W3C//DTD SVG 1.1//EN" "http://www.w3.org/Graphics/SVG/1.1/DTD/svg11.dtd">
<!-- Creator: CorelDRAW -->
<svg xmlns="http://www.w3.org/2000/svg" xml:space="preserve" width="210mm" height="297mm" style="shape-rendering:geometricPrecision; text-rendering:geometricPrecision; image-rendering:optimizeQuality; fill-rule:evenodd; clip-rule:evenodd"
viewBox="0 0 210 297"
 xmlns:xlink="http://www.w3.org/1999/xlink">
 <defs>
  <style type="text/css">
   <![CDATA[
    .str0 {stroke:#1F1A17;stroke-width:0.7}
    .fil0 {fill:none}
   ]]>
  </style>
 </defs>
 <g id="Слой_x0020_1">
  <metadata id="CorelCorpID_0Corel-Layer"/>
  <path class="fil0 str0" d="M75.5214 118.216c2.0127,1.6183 4.2356,2.8369 6.6275,4.1111 0,0 0.2648,0.1021 0.5287,-0.0705l1.547 -1.0118 0.93 -2.0776 -2.6664 -1.9697 -1.7174 1.2702c-0.0548,0.0682 -0.1096,0.1365 -0.1644,0.2047 -1.3237,-0.7029 -2.5877,-1.3903 -3.691,-2.2774 -1.1033,-0.8872 -2.0138,-1.9241 -2.9288,-3.0455l0.1646 -0.2045 0.8719 -1.95 -2.4962 -2.1814 -1.8295 1.3543c-0.2199,0.5792 -0.4205,1.1662 -0.6597,1.7378 -0.067,0.16 -0.1638,0.2728 0.0017,0.4688 1.7217,2.0399 3.4532,4.0101 5.482,5.6415z"/>
 </g>
</svg>
